<svg width="50" height="50" viewBox="0 0 50 50" fill="none" xmlns="http://www.w3.org/2000/svg">
<g clip-path="url(#clip0_221_995)">
<path d="M25 50C38.8071 50 50 38.8071 50 25C50 11.1929 38.8071 0 25 0C11.1929 0 0 11.1929 0 25C0 38.8071 11.1929 50 25 50Z" fill="#957BD4"/>
<path d="M23.1132 34.4444C22.7917 34.4465 22.4731 34.3784 22.1755 34.2442C21.8779 34.11 21.6072 33.9123 21.379 33.6623L14.0517 25.5718C13.8239 25.3204 13.6433 25.0219 13.5201 24.6933C13.3968 24.3648 13.3334 24.0127 13.3334 23.6571C13.3334 22.9389 13.5918 22.2502 14.0517 21.7423C14.5116 21.2345 15.1354 20.9492 15.7858 20.9492C16.4362 20.9492 17.06 21.2345 17.52 21.7423L23.1132 27.945L33.5912 16.3487C34.0512 15.8408 34.675 15.5556 35.3254 15.5556C35.9758 15.5556 36.5996 15.8408 37.0595 16.3487C37.5194 16.8565 37.7778 17.5453 37.7778 18.2634C37.7778 18.9816 37.5194 19.6703 37.0595 20.1782L24.8473 33.6623C24.6191 33.9123 24.3484 34.11 24.0508 34.2442C23.7532 34.3784 23.4346 34.4465 23.1132 34.4444Z" fill="white"/>
</g>
<defs>
<clipPath id="clip0_221_995">
<rect width="50" height="50" fill="white"/>
</clipPath>
</defs>
</svg>
