<svg width="25" height="25" viewBox="0 0 25 25" fill="none" xmlns="http://www.w3.org/2000/svg">
<path d="M21.7339 12.2008L15.4357 4.33065C15.3518 4.22582 15.2522 4.14267 15.1426 4.08593C15.033 4.0292 14.9155 4 14.7969 4C14.5573 4 14.3275 4.11894 14.1581 4.33065C14.0742 4.43548 14.0076 4.55993 13.9622 4.69689C13.9168 4.83386 13.8934 4.98066 13.8934 5.12891C13.8934 5.42831 13.9886 5.71545 14.1581 5.92716L18.9267 11.8747H4.89974C4.66111 11.8747 4.43226 11.9932 4.26353 12.204C4.09479 12.4149 4 12.7009 4 12.999C4 13.2972 4.09479 13.5832 4.26353 13.794C4.43226 14.0049 4.66111 14.1233 4.89974 14.1233H18.9267L14.1581 20.0709C14.0737 20.1754 14.0068 20.2998 13.9611 20.4368C13.9154 20.5738 13.8919 20.7208 13.8919 20.8692C13.8919 21.0176 13.9154 21.1645 13.9611 21.3016C14.0068 21.4386 14.0737 21.5629 14.1581 21.6674C14.2417 21.7728 14.3412 21.8565 14.4509 21.9135C14.5605 21.9706 14.6781 22 14.7969 22C14.9156 22 15.0332 21.9706 15.1429 21.9135C15.2525 21.8565 15.352 21.7728 15.4357 21.6674L21.7339 13.7973C21.8182 13.6928 21.8851 13.5684 21.9308 13.4314C21.9765 13.2944 22 13.1475 22 12.999C22 12.8506 21.9765 12.7037 21.9308 12.5667C21.8851 12.4297 21.8182 12.3053 21.7339 12.2008Z" fill="#6B44AC"/>
</svg>
