<svg width="50" height="50" viewBox="0 0 50 50" fill="none" xmlns="http://www.w3.org/2000/svg">
<g clip-path="url(#clip0_221_999)">
<path d="M49.5 25C49.5 38.531 38.531 49.5 25 49.5C11.469 49.5 0.5 38.531 0.5 25C0.5 11.469 11.469 0.5 25 0.5C38.531 0.5 49.5 11.469 49.5 25Z" fill="#957BD4" stroke="#957BD4"/>
<path d="M33.4361 33.7044C32.9063 34.2342 32.1783 34.5225 31.4123 34.5057C30.6462 34.489 29.905 34.1687 29.3515 33.6152L25.1777 29.4414L21.1822 33.4368C20.6524 33.9666 19.9244 34.2549 19.1584 34.2382C18.3924 34.2214 17.6511 33.9011 17.0976 33.3476C16.5441 32.7941 16.2238 32.0529 16.2071 31.2868C16.1903 30.5208 16.4786 29.7928 17.0084 29.263L21.0039 25.2676L16.8301 21.0938C16.2766 20.5403 15.9562 19.799 15.9395 19.033C15.9228 18.267 16.211 17.539 16.7409 17.0091C17.2707 16.4793 17.9987 16.191 18.7647 16.2078C19.5307 16.2245 20.272 16.5448 20.8255 17.0983L24.9993 21.2721L28.9947 17.2767C29.5246 16.7469 30.2526 16.4586 31.0186 16.4753C31.7846 16.4921 32.5259 16.8124 33.0794 17.3659C33.6328 17.9194 33.9532 18.6607 33.9699 19.4267C33.9866 20.1927 33.6984 20.9207 33.1685 21.4505L29.1731 25.4459L33.3469 29.6197C33.9004 30.1732 34.2207 30.9145 34.2375 31.6805C34.2542 32.4465 33.9659 33.1745 33.4361 33.7044Z" fill="white"/>
</g>
<defs>
<clipPath id="clip0_221_999">
<rect width="50" height="50" fill="white"/>
</clipPath>
</defs>
</svg>
