<svg width="50" height="50" viewBox="0 0 50 50" fill="none" xmlns="http://www.w3.org/2000/svg">
<path d="M33.7 16C33.09 16 32.505 15.7893 32.0737 15.4142C31.6423 15.0391 31.4 14.5304 31.4 14V8H17.6V14C17.6 14.5304 17.3577 15.0391 16.9263 15.4142C16.495 15.7893 15.91 16 15.3 16C14.69 16 14.105 15.7893 13.6737 15.4142C13.2423 15.0391 13 14.5304 13 14V8C13 6.93913 13.4846 5.92172 14.3473 5.17157C15.21 4.42143 16.38 4 17.6 4H31.4C32.62 4 33.79 4.42143 34.6527 5.17157C35.5154 5.92172 36 6.93913 36 8V14C36 14.5304 35.7577 15.0391 35.3263 15.4142C34.895 15.7893 34.31 16 33.7 16Z" fill="#472F6E"/>
<path d="M43.6111 12H5.38889C4.75532 12 4.14769 12.2239 3.69969 12.6224C3.25169 13.0209 3 13.5614 3 14.125C3 14.6886 3.25169 15.2291 3.69969 15.6276C4.14769 16.0261 4.75532 16.25 5.38889 16.25H7.77778V41.75C7.77778 42.8772 8.28115 43.9582 9.17716 44.7552C10.0732 45.5522 11.2884 46 12.5556 46H36.4444C37.7116 46 38.9268 45.5522 39.8228 44.7552C40.7188 43.9582 41.2222 42.8772 41.2222 41.75V16.25H43.6111C44.2447 16.25 44.8523 16.0261 45.3003 15.6276C45.7483 15.2291 46 14.6886 46 14.125C46 13.5614 45.7483 13.0209 45.3003 12.6224C44.8523 12.2239 44.2447 12 43.6111 12Z" fill="#EEEBF7"/>
<path d="M19.5 38C18.837 38 18.2011 37.7893 17.7322 37.4142C17.2634 37.0391 17 36.5304 17 36V24C17 23.4696 17.2634 22.9609 17.7322 22.5858C18.2011 22.2107 18.837 22 19.5 22C20.163 22 20.7989 22.2107 21.2678 22.5858C21.7366 22.9609 22 23.4696 22 24V36C22 36.5304 21.7366 37.0391 21.2678 37.4142C20.7989 37.7893 20.163 38 19.5 38ZM32 36V24C32 23.4696 31.7366 22.9609 31.2678 22.5858C30.7989 22.2107 30.163 22 29.5 22C28.837 22 28.2011 22.2107 27.7322 22.5858C27.2634 22.9609 27 23.4696 27 24V36C27 36.5304 27.2634 37.0391 27.7322 37.4142C28.2011 37.7893 28.837 38 29.5 38C30.163 38 30.7989 37.7893 31.2678 37.4142C31.7366 37.0391 32 36.5304 32 36Z" fill="#472F6E"/>
</svg>
