<svg width="81" height="106" viewBox="0 0 81 106" fill="none" xmlns="http://www.w3.org/2000/svg">
<rect width="81" height="106" fill="white"/>
<g clip-path="url(#clip0_440_1101)">
<path d="M60.5 54C60.5 69.1878 48.1878 81.5 33 81.5C17.8122 81.5 5.5 69.1878 5.5 54C5.5 38.8122 17.8122 26.5 33 26.5C48.1878 26.5 60.5 38.8122 60.5 54Z" fill="#957BD4" stroke="#957BD4"/>
<path d="M42.5772 63.5772C41.9677 64.1866 41.141 64.5291 40.2791 64.5291C39.4171 64.5291 38.5905 64.1866 37.981 63.5772L33.3848 58.981L28.7886 63.5772C28.1791 64.1866 27.3524 64.5291 26.4905 64.5291C25.6285 64.5291 24.8019 64.1866 24.1924 63.5772C23.5829 62.9677 23.2405 62.141 23.2405 61.2791C23.2405 60.4171 23.5829 59.5905 24.1924 58.981L28.7886 54.3848L24.1924 49.7886C23.5829 49.1791 23.2405 48.3524 23.2405 47.4905C23.2405 46.6285 23.5829 45.8019 24.1924 45.1924C24.8019 44.5829 25.6285 44.2405 26.4905 44.2405C27.3524 44.2405 28.1791 44.5829 28.7886 45.1924L33.3848 49.7886L37.981 45.1924C38.5905 44.5829 39.4171 44.2405 40.2791 44.2405C41.141 44.2405 41.9677 44.5829 42.5772 45.1924C43.1867 45.8019 43.5291 46.6285 43.5291 47.4905C43.5291 48.3524 43.1867 49.1791 42.5772 49.7886L37.981 54.3848L42.5772 58.981C43.1867 59.5905 43.5291 60.4171 43.5291 61.2791C43.5291 62.141 43.1867 62.9677 42.5772 63.5772Z" fill="white"/>
</g>
<defs>
<clipPath id="clip0_440_1101">
<rect width="56" height="56" fill="white" transform="translate(5 26)"/>
</clipPath>
</defs>
</svg>
