<svg width="50" height="50" viewBox="0 0 50 50" fill="none" xmlns="http://www.w3.org/2000/svg">
<path d="M41.8 46L8.2 46C7.08609 46 6.0178 45.5083 5.23015 44.6332C4.4425 43.758 4 42.571 4 41.3333L4 32C4 31.3812 4.22125 30.7877 4.61508 30.3501C5.0089 29.9125 5.54305 29.6667 6.1 29.6667C6.65695 29.6667 7.1911 29.9125 7.58492 30.3501C7.97875 30.7877 8.2 31.3812 8.2 32L8.2 41.3333L41.8 41.3333L41.8 8.66667L31.3 8.66667C30.743 8.66667 30.2089 8.42083 29.8151 7.98325C29.4212 7.54566 29.2 6.95217 29.2 6.33333C29.2 5.71449 29.4212 5.121 29.8151 4.68342C30.2089 4.24583 30.743 4 31.3 4L41.8 4C42.9139 4 43.9822 4.49167 44.7698 5.36683C45.5575 6.242 46 7.42899 46 8.66667L46 41.3333C46 42.571 45.5575 43.758 44.7698 44.6332C43.9822 45.5083 42.9139 46 41.8 46Z" fill="#472F6E"/>
<path d="M25 39C24.0717 39 23.1815 38.6313 22.5251 37.9749C21.8687 37.3185 21.5 36.4283 21.5 35.5V28.5H14.5C13.5717 28.5 12.6815 28.1312 12.0251 27.4749C11.3687 26.8185 11 25.9283 11 25C11 24.0717 11.3687 23.1815 12.0251 22.5251C12.6815 21.8687 13.5717 21.5 14.5 21.5H21.5V14.5C21.5 13.5717 21.8687 12.6815 22.5251 12.0251C23.1815 11.3687 24.0717 11 25 11C25.9283 11 26.8185 11.3687 27.4749 12.0251C28.1313 12.6815 28.5 13.5717 28.5 14.5V21.5H35.5C36.4283 21.5 37.3185 21.8687 37.9749 22.5251C38.6313 23.1815 39 24.0717 39 25C39 25.9283 38.6313 26.8185 37.9749 27.4749C37.3185 28.1312 36.4283 28.5 35.5 28.5H28.5V35.5C28.5 36.4283 28.1313 37.3185 27.4749 37.9749C26.8185 38.6313 25.9283 39 25 39Z" fill="#EEEBF7"/>
</svg>
