<svg width="30" height="30" viewBox="0 0 30 30" fill="none" xmlns="http://www.w3.org/2000/svg">
<circle cx="15" cy="15" r="15" fill="#CAC0EB"/>
<path d="M20.5917 14.1665L16.425 7.49988C16.2701 7.25549 16.056 7.05421 15.8025 6.91475C15.549 6.77528 15.2643 6.70215 14.975 6.70215C14.6857 6.70215 14.401 6.77528 14.1475 6.91475C13.894 7.05421 13.6799 7.25549 13.525 7.49988L9.40832 14.1665C9.23477 14.445 9.15054 14.7699 9.16692 15.0976C9.18331 15.4253 9.29953 15.7401 9.49999 15.9999C9.70837 16.2812 10 16.4897 10.3336 16.5959C10.6671 16.7021 11.0257 16.7006 11.3583 16.5915L12.5 16.2499V21.6665C12.5 22.1086 12.6756 22.5325 12.9881 22.8451C13.3007 23.1576 13.7246 23.3332 14.1667 23.3332H15.8333C16.2754 23.3332 16.6993 23.1576 17.0118 22.8451C17.3244 22.5325 17.5 22.1086 17.5 21.6665V16.2499L18.6417 16.5915C18.9743 16.7006 19.3328 16.7021 19.6664 16.5959C20 16.4897 20.2916 16.2812 20.5 15.9999C20.7005 15.7401 20.8167 15.4253 20.8331 15.0976C20.8494 14.7699 20.7652 14.445 20.5917 14.1665Z" fill="#F6F5FA"/>
</svg>
