<svg width="30" height="30" viewBox="0 0 30 30" fill="none" xmlns="http://www.w3.org/2000/svg">
<path d="M20.3486 8.00603C19.5959 7.34615 18.7098 6.82957 17.7408 6.48579C16.7719 6.14201 15.739 5.97776 14.7013 6.00242C12.6055 6.05222 10.617 6.86847 9.17325 8.2716C7.72947 9.67473 6.94867 11.5498 7.00262 13.4843C7.05658 15.4188 7.94087 17.2543 9.46096 18.587C9.80463 18.8805 10.0814 19.2343 10.2752 19.6277C10.4689 20.0211 10.5757 20.4462 10.5892 20.8782V23.8671C10.5892 24.4195 10.8269 24.9493 11.2501 25.3399C11.6733 25.7306 12.2472 25.95 12.8457 25.95H17.3587C17.9572 25.95 18.5311 25.7306 18.9543 25.3399C19.3775 24.9493 19.6152 24.4138 19.6152 23.8614V20.8678C19.6171 20.4569 19.7067 20.0504 19.879 19.6715C20.0513 19.2927 20.3029 18.9489 20.6193 18.6599C21.3758 17.9848 21.9766 17.1756 22.3857 16.2807C22.7948 15.3859 23.0037 14.424 22.9999 13.4527C22.9996 12.4236 22.7631 11.4061 22.3061 10.4673C21.8491 9.52853 21.182 8.68971 20.3486 8.00603Z" fill="#CAC0EB"/>
<path d="M10.5894 23L10.5894 23.7475L10.5894 24.5C10.5894 24.9509 11.1171 25.6812 11.5338 26C11.9506 26.3188 12.2778 26.4 12.8672 26.4C12.8672 26.6254 12.9842 26.8416 13.1926 27.001C13.401 27.1604 13.6836 27.25 13.9783 27.25H16.2005C16.4952 27.25 16.7778 27.1604 16.9862 27.001C17.1945 26.8416 17.3116 26.6254 17.3116 26.4C17.901 26.4 18.2282 26.3188 18.6449 26C19.0617 25.6812 19.6189 24.9509 19.6189 24.5V23H10.5894Z" fill="#6B44AC"/>
<path d="M23.0426 7.05C22.7129 7.0453 22.3984 6.91052 22.1676 6.675C21.9348 6.4408 21.8041 6.12398 21.8041 5.79375C21.8041 5.46352 21.9348 5.1467 22.1676 4.9125L23.0426 4.025C23.1592 3.90845 23.2975 3.816 23.4498 3.75292C23.6021 3.68985 23.7653 3.65739 23.9301 3.65739C24.0949 3.65739 24.2581 3.68985 24.4104 3.75292C24.5627 3.816 24.7011 3.90845 24.8176 4.025C24.9342 4.14155 25.0266 4.27991 25.0897 4.43219C25.1528 4.58447 25.1852 4.74768 25.1852 4.9125C25.1852 5.07732 25.1528 5.24053 25.0897 5.39281C25.0266 5.54509 24.9342 5.68345 24.8176 5.8L23.9301 6.675C23.8143 6.79311 23.6763 6.88707 23.5239 6.95144C23.3716 7.01581 23.208 7.04931 23.0426 7.05ZM7.14261 7.05C6.97723 7.04931 6.81363 7.01581 6.66128 6.95144C6.50894 6.88707 6.37088 6.79311 6.25511 6.675L5.36761 5.8C5.13223 5.56462 5 5.24538 5 4.9125C5 4.57962 5.13223 4.26038 5.36761 4.025C5.60299 3.78962 5.92224 3.65739 6.25511 3.65739C6.58799 3.65739 6.90723 3.78962 7.14261 4.025L8.01761 4.9125C8.25043 5.1467 8.38111 5.46352 8.38111 5.79375C8.38111 6.12398 8.25043 6.4408 8.01761 6.675C7.78683 6.91052 7.47233 7.0453 7.14261 7.05ZM15.0926 3.75C14.7611 3.75 14.4432 3.6183 14.2087 3.38388C13.9743 3.14946 13.8426 2.83152 13.8426 2.5V1.25C13.8426 0.918479 13.9743 0.600537 14.2087 0.366116C14.4432 0.131696 14.7611 0 15.0926 0C15.4241 0 15.7421 0.131696 15.9765 0.366116C16.2109 0.600537 16.3426 0.918479 16.3426 1.25V2.5C16.3426 2.83152 16.2109 3.14946 15.9765 3.38388C15.7421 3.6183 15.4241 3.75 15.0926 3.75Z" fill="#6B44AC"/>
</svg>
