<svg width="30" height="30" viewBox="0 0 30 30" fill="none" xmlns="http://www.w3.org/2000/svg">
<path d="M10.375 21H18.625C18.9897 21 19.3394 21.1264 19.5973 21.3515C19.8551 21.5765 20 21.8817 20 22.2C20 23.473 19.4205 24.6939 18.3891 25.5941C17.3576 26.4943 15.9587 27 14.5 27C13.0413 27 11.6424 26.4943 10.6109 25.5941C9.57946 24.6939 9 23.473 9 22.2C9 21.8817 9.14487 21.5765 9.40273 21.3515C9.66059 21.1264 10.0103 21 10.375 21Z" fill="#6B44AC"/>
<path d="M5.05499 18.0429L6.32755 16.8359V12.8235C6.32755 10.7486 7.18858 8.75865 8.72121 7.29146C10.2538 5.82426 12.3325 5 14.5 5C16.6675 5 18.7462 5.82426 20.2788 7.29146C21.8114 8.75865 22.6724 10.7486 22.6724 12.8235V16.8359L23.945 18.0429C24.4506 18.5327 24.7939 19.1544 24.932 19.8302C25.0701 20.5059 24.9968 21.2056 24.7213 21.8417C24.4458 22.4777 23.9804 23.0218 23.3833 23.4057C22.7863 23.7897 22.0841 23.9964 21.3649 24H7.63514C6.91589 23.9964 6.21374 23.7897 5.61667 23.4057C5.0196 23.0218 4.55416 22.4777 4.27867 21.8417C4.00318 21.2056 3.92989 20.5059 4.06799 19.8302C4.20608 19.1544 4.54942 18.5327 5.05499 18.0429Z" fill="#CAC0EB"/>
<path d="M8 13C10.2091 13 12 11.2091 12 9C12 6.79086 10.2091 5 8 5C5.79086 5 4 6.79086 4 9C4 11.2091 5.79086 13 8 13Z" fill="#6B44AC"/>
</svg>
