<svg width="50" height="50" viewBox="0 0 50 50" fill="none" xmlns="http://www.w3.org/2000/svg">
<path d="M19.5 44.5V30.5H30.5V44.5H19.5Z" stroke="#472F6E" stroke-width="3"/>
<path d="M44.1729 25.4141L44.1728 25.4141L44.1642 25.4228C44.11 25.4775 44.0454 25.5209 43.9743 25.5505C43.9033 25.5801 43.827 25.5954 43.75 25.5954C43.673 25.5954 43.5968 25.5801 43.5257 25.5505C43.4546 25.5209 43.3901 25.4775 43.3358 25.4228L43.3315 25.4185L42.7273 24.8143L40.1667 22.2536V25.875V42.2586C40.1379 42.8272 39.8885 43.3627 39.4708 43.7507C39.0469 44.1444 38.4844 44.3542 37.9062 44.3342L37.8802 44.3333H37.8542H33.3333C33.1786 44.3333 33.0303 44.2718 32.9209 44.1624C32.8115 44.053 32.75 43.9047 32.75 43.75V31.4583C32.75 30.5079 32.3725 29.5965 31.7005 28.9245C31.0285 28.2525 30.117 27.875 29.1667 27.875H20.8333C19.883 27.875 18.9716 28.2525 18.2995 28.9245C17.6275 29.5965 17.25 30.5079 17.25 31.4583V43.75C17.25 43.9047 17.1886 44.053 17.0792 44.1624C16.9698 44.2718 16.8214 44.3333 16.6667 44.3333H12.1458H12.1198L12.0939 44.3342C11.5157 44.3542 10.9531 44.1444 10.5292 43.7507C10.1116 43.3627 9.86213 42.8273 9.83335 42.2586V25.875V22.2536L7.27269 24.8143L6.66851 25.4185L6.66418 25.4228C6.60996 25.4775 6.54544 25.5209 6.47435 25.5505C6.40326 25.5801 6.32701 25.5954 6.25002 25.5954C6.17302 25.5954 6.09677 25.5801 6.02568 25.5505C5.95459 25.5209 5.89007 25.4775 5.83585 25.4228L5.83588 25.4228L5.82715 25.4141C5.77248 25.3599 5.72908 25.2954 5.69946 25.2243C5.66985 25.1532 5.6546 25.077 5.6546 25C5.6546 24.9229 5.66985 24.8467 5.69946 24.7756C5.72908 24.7045 5.77247 24.64 5.82716 24.5858L5.83151 24.5814L24.5815 5.83146L24.5858 5.82709C24.6401 5.77241 24.7046 5.72902 24.7757 5.6994C24.8468 5.66979 24.923 5.65454 25 5.65454C25.077 5.65454 25.1533 5.66979 25.2244 5.6994C25.2954 5.72902 25.36 5.77242 25.4142 5.8271L25.4185 5.83145L44.1685 24.5815L44.1729 24.5858C44.2276 24.64 44.271 24.7045 44.3006 24.7756C44.3302 24.8467 44.3454 24.9229 44.3454 25C44.3454 25.077 44.3302 25.1532 44.3006 25.2243C44.271 25.2954 44.2276 25.3599 44.1729 25.4141Z" stroke="#EEEBF7" stroke-width="3"/>
</svg>
