<svg width="50" height="50" viewBox="0 0 50 50" fill="none" xmlns="http://www.w3.org/2000/svg">
<path d="M43.75 16.6666H6.25002C5.69749 16.6666 5.16758 16.8861 4.77688 17.2768C4.38618 17.6675 4.16669 18.1974 4.16669 18.75V41.6666C4.16669 42.7717 4.60567 43.8315 5.38708 44.6129C6.16848 45.3943 7.22828 45.8333 8.33335 45.8333H41.6667C42.7718 45.8333 43.8316 45.3943 44.613 44.6129C45.3944 43.8315 45.8334 42.7717 45.8334 41.6666V18.75C45.8334 18.1974 45.6139 17.6675 45.2232 17.2768C44.8325 16.8861 44.3026 16.6666 43.75 16.6666Z" fill="#EEEBF7"/>
<path d="M41.6667 8.33337H8.33335C7.22828 8.33337 6.16848 8.77236 5.38708 9.55376C4.60567 10.3352 4.16669 11.395 4.16669 12.5V20.8334H45.8334V12.5C45.8334 11.395 45.3944 10.3352 44.613 9.55376C43.8316 8.77236 42.7718 8.33337 41.6667 8.33337Z" fill="#472F6E"/>
<path d="M33.3333 16.6666C32.7808 16.6666 32.2509 16.4471 31.8602 16.0564C31.4695 15.6657 31.25 15.1358 31.25 14.5833V6.24996C31.25 5.69742 31.4695 5.16752 31.8602 4.77682C32.2509 4.38612 32.7808 4.16663 33.3333 4.16663C33.8858 4.16663 34.4158 4.38612 34.8065 4.77682C35.1972 5.16752 35.4166 5.69742 35.4166 6.24996V14.5833C35.4166 15.1358 35.1972 15.6657 34.8065 16.0564C34.4158 16.4471 33.8858 16.6666 33.3333 16.6666ZM18.75 14.5833V6.24996C18.75 5.69742 18.5305 5.16752 18.1398 4.77682C17.7491 4.38612 17.2192 4.16663 16.6666 4.16663C16.1141 4.16663 15.5842 4.38612 15.1935 4.77682C14.8028 5.16752 14.5833 5.69742 14.5833 6.24996V14.5833C14.5833 15.1358 14.8028 15.6657 15.1935 16.0564C15.5842 16.4471 16.1141 16.6666 16.6666 16.6666C17.2192 16.6666 17.7491 16.4471 18.1398 16.0564C18.5305 15.6657 18.75 15.1358 18.75 14.5833Z" fill="#EEEBF7"/>
<path d="M25 49C32.1797 49 38 43.1797 38 36C38 28.8203 32.1797 23 25 23C17.8203 23 12 28.8203 12 36C12 43.1797 17.8203 49 25 49Z" fill="#472F6E"/>
<path d="M25 44C24.4696 44 23.9609 43.7893 23.5858 43.4142C23.2107 43.0391 23 42.5304 23 42V38H19C18.4696 38 17.9609 37.7893 17.5858 37.4142C17.2107 37.0391 17 36.5304 17 36C17 35.4696 17.2107 34.9609 17.5858 34.5858C17.9609 34.2107 18.4696 34 19 34H23V30C23 29.4696 23.2107 28.9609 23.5858 28.5858C23.9609 28.2107 24.4696 28 25 28C25.5304 28 26.0391 28.2107 26.4142 28.5858C26.7893 28.9609 27 29.4696 27 30V34H31C31.5304 34 32.0391 34.2107 32.4142 34.5858C32.7893 34.9609 33 35.4696 33 36C33 36.5304 32.7893 37.0391 32.4142 37.4142C32.0391 37.7893 31.5304 38 31 38H27V42C27 42.5304 26.7893 43.0391 26.4142 43.4142C26.0391 43.7893 25.5304 44 25 44Z" fill="#EEEBF7"/>
</svg>
