<svg width="30" height="30" viewBox="0 0 30 30" fill="none" xmlns="http://www.w3.org/2000/svg">
<path d="M2.8625 15.8875L11.6125 24.6375C11.729 24.7541 11.8674 24.8465 12.0197 24.9096C12.172 24.9727 12.3352 25.0051 12.5 25.0051C12.8329 25.0051 13.1521 24.8729 13.3875 24.6375C13.504 24.521 13.5965 24.3826 13.6596 24.2303C13.7227 24.078 13.7551 23.9148 13.7551 23.75C13.7551 23.4171 13.6229 23.0979 13.3875 22.8625L6.7625 16.25H26.25C26.5815 16.25 26.8995 16.1183 27.1339 15.8839C27.3683 15.6495 27.5 15.3315 27.5 15C27.5 14.6685 27.3683 14.3505 27.1339 14.1161C26.8995 13.8817 26.5815 13.75 26.25 13.75L6.7625 13.75L13.3875 7.13751C13.5047 7.02131 13.5977 6.88306 13.6611 6.73073C13.7246 6.57841 13.7572 6.41503 13.7572 6.25001C13.7572 6.085 13.7246 5.92162 13.6611 5.76929C13.5977 5.61697 13.5047 5.47872 13.3875 5.36251C13.2713 5.24535 13.133 5.15236 12.9807 5.0889C12.8284 5.02544 12.665 4.99277 12.5 4.99277C12.335 4.99277 12.1716 5.02544 12.0193 5.0889C11.867 5.15236 11.7287 5.24535 11.6125 5.36251L2.8625 14.1125C2.74534 14.2287 2.65235 14.367 2.58888 14.5193C2.52542 14.6716 2.49275 14.835 2.49275 15C2.49275 15.165 2.52542 15.3284 2.58888 15.4807C2.65235 15.6331 2.74534 15.7713 2.8625 15.8875Z" fill="#5B3C8C"/>
</svg>
