<svg width="30" height="30" viewBox="0 0 30 30" fill="none" xmlns="http://www.w3.org/2000/svg">
<path d="M24.85 12.5H5.3V6.25C5.3 5.91848 5.17884 5.60054 4.96317 5.36612C4.74751 5.1317 4.455 5 4.15 5C3.845 5 3.55249 5.1317 3.33683 5.36612C3.12116 5.60054 3 5.91848 3 6.25V23.75C3 24.0815 3.12116 24.3995 3.33683 24.6339C3.55249 24.8683 3.845 25 4.15 25C4.455 25 4.74751 24.8683 4.96317 24.6339C5.17884 24.3995 5.3 24.0815 5.3 23.75V22.5H23.7V23.75C23.7 24.0815 23.8212 24.3995 24.0368 24.6339C24.2525 24.8683 24.545 25 24.85 25C25.155 25 25.4475 24.8683 25.6632 24.6339C25.8788 24.3995 26 24.0815 26 23.75V13.75C26 13.4185 25.8788 13.1005 25.6632 12.8661C25.4475 12.6317 25.155 12.5 24.85 12.5Z" fill="#CAC0EB"/>
<path d="M23.5714 10H11.4286C10.7845 10 10.1668 10.281 9.71131 10.781C9.25587 11.2811 9 11.9594 9 12.6667V16.6667C9 17.0203 9.12793 17.3594 9.35566 17.6095C9.58338 17.8595 9.89224 18 10.2143 18H24.7857C25.1078 18 25.4166 17.8595 25.6443 17.6095C25.8721 17.3594 26 17.0203 26 16.6667V12.6667C26 11.9594 25.7441 11.2811 25.2887 10.781C24.8332 10.281 24.2155 10 23.5714 10Z" fill="#6B44AC"/>
</svg>
