<svg width="50" height="50" viewBox="0 0 50 50" fill="none" xmlns="http://www.w3.org/2000/svg">
<path d="M43.5208 20.375H42.1667C41.7089 20.3424 41.2698 20.1801 40.9009 19.9071C40.5319 19.634 40.2483 19.2616 40.0833 18.8333V18.75C39.8856 18.3174 39.8235 17.835 39.9053 17.3664C39.9872 16.8978 40.209 16.465 40.5417 16.125L41.5 15.1667C41.9301 14.7268 42.1709 14.136 42.1709 13.5208C42.1709 12.9056 41.9301 12.3149 41.5 11.875L38.1042 8.625C37.6643 8.1949 37.0735 7.95408 36.4583 7.95408C35.8431 7.95408 35.2524 8.1949 34.8125 8.625L33.8542 9.58333C33.5159 9.9117 33.0868 10.1309 32.6225 10.2127C32.1582 10.2944 31.6801 10.2348 31.25 10.0417C30.8217 9.87664 30.4493 9.59308 30.1763 9.22414C29.9033 8.8552 29.7409 8.41614 29.7083 7.95833V6.47916C29.7085 6.16834 29.6461 5.86067 29.5247 5.57453C29.4033 5.28839 29.2255 5.02966 29.0018 4.8138C28.7782 4.59793 28.5133 4.42937 28.2231 4.31818C27.9328 4.207 27.6231 4.15546 27.3125 4.16666H22.6875C22.0742 4.16666 21.486 4.4103 21.0523 4.84398C20.6186 5.27766 20.375 5.86585 20.375 6.47916V7.83333C20.3424 8.29114 20.1801 8.7302 19.9071 9.09914C19.634 9.46808 19.2616 9.75164 18.8333 9.91666H18.75C18.3319 10.126 17.8609 10.2061 17.3971 10.1467C16.9333 10.0874 16.4977 9.89123 16.1458 9.58333L15.1875 8.625C14.7476 8.1949 14.1569 7.95408 13.5417 7.95408C12.9265 7.95408 12.3357 8.1949 11.8958 8.625L8.625 11.8958C8.1949 12.3357 7.95408 12.9265 7.95408 13.5417C7.95408 14.1569 8.1949 14.7476 8.625 15.1875L9.58333 16.1458C9.9117 16.4841 10.1309 16.9132 10.2127 17.3775C10.2944 17.8418 10.2348 18.3199 10.0417 18.75C9.87664 19.1783 9.59308 19.5507 9.22414 19.8237C8.8552 20.0967 8.41614 20.259 7.95833 20.2917H6.47916C6.16834 20.2915 5.86067 20.3539 5.57453 20.4753C5.28839 20.5967 5.02966 20.7745 4.8138 20.9982C4.59793 21.2218 4.42937 21.4867 4.31818 21.7769C4.207 22.0672 4.15546 22.3769 4.16666 22.6875V27.3125C4.16666 27.9258 4.4103 28.514 4.84398 28.9477C5.27766 29.3814 5.86585 29.625 6.47916 29.625H7.83333C8.29114 29.6576 8.7302 29.8199 9.09914 30.0929C9.46808 30.3659 9.75164 30.7384 9.91666 31.1667C10.1144 31.5993 10.1765 32.0817 10.0946 32.5503C10.0128 33.0188 9.79098 33.4516 9.45833 33.7917L8.5 34.75C8.0699 35.1899 7.82908 35.7806 7.82908 36.3958C7.82908 37.011 8.0699 37.6018 8.5 38.0417L11.7708 41.3125C12.2107 41.7426 12.8015 41.9834 13.4167 41.9834C14.0319 41.9834 14.6226 41.7426 15.0625 41.3125L16.0208 40.3542C16.3763 40.0096 16.8314 39.7859 17.3214 39.7148C17.8113 39.6437 18.3112 39.729 18.75 39.9583C19.1783 40.1233 19.5507 40.4069 19.8237 40.7759C20.0967 41.1448 20.259 41.5839 20.2917 42.0417V43.3958C20.274 43.717 20.3236 44.0383 20.4372 44.3392C20.5509 44.6402 20.726 44.9141 20.9515 45.1435C21.177 45.3729 21.4478 45.5527 21.7467 45.6715C22.0456 45.7903 22.3661 45.8454 22.6875 45.8333H27.3125C27.9258 45.8333 28.514 45.5897 28.9477 45.156C29.3814 44.7223 29.625 44.1341 29.625 43.5208V42.1667C29.6576 41.7089 29.8199 41.2698 30.0929 40.9009C30.3659 40.5319 30.7384 40.2483 31.1667 40.0833C31.5993 39.8856 32.0817 39.8235 32.5503 39.9053C33.0188 39.9872 33.4516 40.209 33.7917 40.5417L34.75 41.5C35.1899 41.9301 35.7806 42.1709 36.3958 42.1709C37.011 42.1709 37.6018 41.9301 38.0417 41.5L41.3125 38.2292C41.7426 37.7893 41.9834 37.1985 41.9834 36.5833C41.9834 35.9681 41.7426 35.3774 41.3125 34.9375L40.3542 33.9792C40.0096 33.6237 39.7859 33.1686 39.7148 32.6786C39.6437 32.1886 39.729 31.6887 39.9583 31.25C40.1233 30.8217 40.4069 30.4493 40.7759 30.1763C41.1448 29.9033 41.5839 29.7409 42.0417 29.7083H43.3958C43.717 29.7259 44.0383 29.6764 44.3392 29.5627C44.6402 29.4491 44.9141 29.274 45.1435 29.0485C45.3729 28.823 45.5527 28.5522 45.6715 28.2533C45.7903 27.9543 45.8454 27.6339 45.8333 27.3125V22.6875C45.8333 22.0742 45.5897 21.486 45.156 21.0523C44.7223 20.6186 44.1341 20.375 43.5208 20.375Z" fill="#EEEBF7"/>
<path d="M25 33.3333C29.6024 33.3333 33.3333 29.6023 33.3333 25C33.3333 20.3976 29.6024 16.6666 25 16.6666C20.3976 16.6666 16.6667 20.3976 16.6667 25C16.6667 29.6023 20.3976 33.3333 25 33.3333Z" fill="#472F6E"/>
</svg>
