<svg width="50" height="50" viewBox="0 0 50 50" fill="none" xmlns="http://www.w3.org/2000/svg">
<path d="M4 41.8L4 8.2C4 7.08609 4.49167 6.0178 5.36684 5.23015C6.24201 4.4425 7.42899 4 8.66667 4L18 4C18.6188 4 19.2123 4.22125 19.6499 4.61508C20.0875 5.0089 20.3333 5.54305 20.3333 6.1C20.3333 6.65695 20.0875 7.1911 19.6499 7.58492C19.2123 7.97875 18.6188 8.2 18 8.2L8.66667 8.2L8.66667 41.8L41.3333 41.8V31.3C41.3333 30.743 41.5792 30.2089 42.0168 29.8151C42.4543 29.4212 43.0478 29.2 43.6667 29.2C44.2855 29.2 44.879 29.4212 45.3166 29.8151C45.7542 30.2089 46 30.743 46 31.3V41.8C46 42.9139 45.5083 43.9822 44.6332 44.7698C43.758 45.5575 42.571 46 41.3333 46L8.66667 46C7.42899 46 6.24201 45.5575 5.36684 44.7698C4.49167 43.9822 4 42.9139 4 41.8Z" fill="#472F6E"/>
<path d="M24.8026 36.9999C24.3818 37.003 23.9647 36.9021 23.5751 36.7032C23.1856 36.5042 22.8312 36.2111 22.5325 35.8406L12.9403 23.8477C12.6422 23.4749 12.4057 23.0324 12.2444 22.5454C12.083 22.0584 12 21.5364 12 21.0093C12 19.9447 12.3382 18.9238 12.9403 18.171C13.5424 17.4182 14.359 16.9953 15.2105 16.9953C16.0619 16.9953 16.8785 17.4182 17.4806 18.171L24.8026 27.3656L38.5194 10.1757C39.1215 9.4229 39.9381 9 40.7895 9C41.641 9 42.4576 9.4229 43.0597 10.1757C43.6618 10.9284 44 11.9494 44 13.014C44 14.0786 43.6618 15.0996 43.0597 15.8523L27.0728 35.8406C26.774 36.2111 26.4197 36.5042 26.0301 36.7032C25.6406 36.9021 25.2234 37.003 24.8026 36.9999Z" fill="#EEEBF7"/>
</svg>
