<svg width="50" height="50" viewBox="0 0 50 50" fill="none" xmlns="http://www.w3.org/2000/svg">
<path d="M41.8 46H8.2C7.08609 46 6.0178 45.5083 5.23015 44.6332C4.4425 43.758 4 42.571 4 41.3333V32C4 31.3812 4.22125 30.7877 4.61508 30.3501C5.0089 29.9125 5.54305 29.6667 6.1 29.6667C6.65695 29.6667 7.1911 29.9125 7.58492 30.3501C7.97875 30.7877 8.2 31.3812 8.2 32V41.3333H41.8V8.66667H31.3C30.743 8.66667 30.2089 8.42083 29.8151 7.98325C29.4212 7.54566 29.2 6.95217 29.2 6.33333C29.2 5.71449 29.4212 5.121 29.8151 4.68342C30.2089 4.24583 30.743 4 31.3 4H41.8C42.9139 4 43.9822 4.49167 44.7698 5.36683C45.5575 6.242 46 7.42899 46 8.66667V41.3333C46 42.571 45.5575 43.758 44.7698 44.6332C43.9822 45.5083 42.9139 46 41.8 46Z" fill="#472F6E"/>
<path d="M22.9932 13.8633V9.21623C22.9938 8.81421 22.8892 8.41963 22.6906 8.07485C22.492 7.73007 22.207 7.44813 21.8661 7.2593C21.5252 7.07047 21.1414 6.98189 20.7558 7.00307C20.3702 7.02426 19.9974 7.1544 19.6775 7.37953L5.5645 17.4039C5.07562 17.819 4.68159 18.3421 4.41099 18.9353C4.14039 19.5286 4 20.1771 4 20.8339C4 21.4907 4.14039 22.1392 4.41099 22.7324C4.68159 23.3257 5.07562 23.8488 5.5645 24.2639H5.69203L19.6775 34.1776C19.99 34.3982 20.3532 34.5281 20.7299 34.554C21.1066 34.58 21.4831 34.501 21.8207 34.3252C22.1584 34.1495 22.445 33.8832 22.651 33.5539C22.8571 33.2246 22.9752 32.8441 22.9932 32.4516V28.3577C27.5721 29.6444 31.5133 32.6883 34.0243 36.8773C34.2116 37.215 34.4812 37.4952 34.806 37.6895C35.1307 37.8838 35.499 37.9853 35.8735 37.9838C36.05 38.0054 36.2283 38.0054 36.4048 37.9838C36.8725 37.8583 37.2852 37.5708 37.5749 37.1686C37.8647 36.7664 38.0142 36.2734 37.9989 35.7709C37.9989 23.2238 32.4302 15.191 22.9932 13.8633Z" fill="#EEEBF7"/>
</svg>
