<svg width="30" height="30" viewBox="0 0 30 30" fill="none" xmlns="http://www.w3.org/2000/svg">
<path d="M19.5 3H9.5C8.83696 3 8.20107 3.23889 7.73223 3.66412C7.26339 4.08935 7 4.66608 7 5.26745V15.0968C7.00107 15.2836 7.05297 15.4672 7.1511 15.6313C7.24923 15.7955 7.39055 15.9351 7.5625 16.0378L13.8125 19.8131C14.0166 19.935 14.2556 20 14.5 20C14.7444 20 14.9834 19.935 15.1875 19.8131L21.4375 16.0378C21.6095 15.9351 21.7508 15.7955 21.8489 15.6313C21.947 15.4672 21.9989 15.2836 22 15.0968V5.26745C22 4.66608 21.7366 4.08935 21.2678 3.66412C20.7989 3.23889 20.163 3 19.5 3Z" fill="#6B44AC"/>
<path d="M25.54 11.6L20.94 8.225C20.696 8.04598 20.3893 7.96912 20.0874 8.01131C19.7854 8.05351 19.513 8.21131 19.33 8.45C19.147 8.6887 19.0684 8.98873 19.1116 9.2841C19.1547 9.57947 19.316 9.84598 19.56 10.025L22.8605 12.5L14.5 17.9L6.1395 12.5L9.44 10.025C9.684 9.84598 9.84531 9.57947 9.88844 9.2841C9.93158 8.98873 9.853 8.6887 9.67 8.45C9.487 8.21131 9.21457 8.05351 8.91263 8.01131C8.6107 7.96912 8.304 8.04598 8.06 8.225L3.46 11.6C3.31717 11.7048 3.20125 11.8407 3.12141 11.9969C3.04157 12.1531 3 12.3254 3 12.5V23.84C3.02378 24.421 3.27655 24.9704 3.70534 25.3731C4.13412 25.7758 4.70561 26.0005 5.3 26H23.7C24.2944 26.0005 24.8659 25.7758 25.2947 25.3731C25.7234 24.9704 25.9762 24.421 26 23.84V12.5C26 12.3254 25.9584 12.1531 25.8786 11.9969C25.7987 11.8407 25.6828 11.7048 25.54 11.6Z" fill="#CAC0EB"/>
<path d="M22 5.34375V13.3125L14.5 18L7 13.3125V5.34375C7 4.72215 7.26339 4.12601 7.73223 3.68647C8.20107 3.24693 8.83696 3 9.5 3H19.5C20.163 3 20.7989 3.24693 21.2678 3.68647C21.7366 4.12601 22 4.72215 22 5.34375Z" fill="#6B44AC"/>
</svg>
